<?xml version="1.0" standalone="no"?>
<!DOCTYPE svg PUBLIC "-//W3C//DTD SVG 20010904//EN"
 "http://www.w3.org/TR/2001/REC-SVG-20010904/DTD/svg10.dtd">
<svg version="1.0" xmlns="http://www.w3.org/2000/svg"
 width="2300.000000pt" height="2275.000000pt" viewBox="0 0 2300.000000 2275.000000"
 preserveAspectRatio="xMidYMid meet">

<g transform="translate(0.000000,2275.000000) scale(0.100000,-0.100000)"
fill="#000000" stroke="none">
<path d="M13600 22744 c-301 -35 -768 -187 -1141 -370 -344 -169 -579 -332
-817 -567 -149 -147 -229 -247 -404 -508 -234 -349 -385 -536 -599 -744 -368
-356 -732 -577 -1180 -715 -268 -82 -478 -115 -879 -135 -229 -11 -291 -18
-372 -39 -296 -76 -467 -251 -529 -541 -15 -72 -15 -296 -1 -380 6 -33 20
-113 31 -178 53 -301 6 -501 -151 -653 -118 -114 -279 -195 -528 -264 -63 -18
-187 -52 -275 -77 -1571 -439 -2982 -1339 -4021 -2563 -852 -1005 -1441 -2207
-1700 -3472 -292 -1430 -164 -2890 373 -4243 143 -359 194 -461 395 -783 234
-375 308 -589 264 -762 -22 -85 -56 -142 -130 -215 -83 -83 -169 -137 -424
-269 -337 -175 -391 -211 -603 -401 -498 -448 -792 -967 -885 -1565 -23 -144
-26 -545 -5 -690 104 -748 473 -1278 1156 -1658 566 -316 1555 -573 2525 -656
548 -48 1246 -50 1930 -5 478 30 1339 120 1490 155 197 45 346 132 507 296
242 247 409 246 698 -1 442 -379 879 -585 1457 -686 290 -51 402 -55 1466 -55
l982 0 0 35 0 35 983 0 c1368 1 1553 10 1853 90 543 145 1002 518 1253 1017
139 280 195 523 207 908 27 876 -168 1602 -591 2198 -92 129 -160 255 -196
362 -20 59 -24 89 -24 195 1 113 4 133 31 211 44 123 106 231 250 434 328 463
561 845 788 1295 227 448 407 903 536 1350 55 190 79 289 164 670 41 184 86
372 100 417 60 187 171 266 328 234 65 -14 128 -52 152 -92 43 -74 37 -212
-38 -802 -50 -387 -62 -584 -47 -766 58 -701 358 -1310 862 -1746 338 -294
766 -516 1137 -591 655 -132 1300 84 1833 616 329 328 668 812 840 1201 192
434 272 791 272 1224 1 434 -69 757 -265 1229 -146 351 -202 569 -215 836 -14
302 49 562 227 935 299 623 390 1232 295 1955 -56 420 -207 966 -358 1298
-351 769 -956 1249 -1712 1357 -133 19 -423 19 -572 0 -563 -73 -1169 -380
-1599 -809 -128 -129 -187 -197 -276 -321 -284 -397 -443 -853 -504 -1445 -19
-179 -23 -610 -10 -915 7 -177 6 -206 -9 -250 -24 -71 -57 -110 -117 -139
-159 -77 -296 -43 -403 100 -51 68 -252 460 -346 674 -128 295 -369 749 -541
1020 -314 496 -629 891 -1038 1301 -437 439 -735 683 -1300 1067 -276 187
-417 357 -476 572 -13 47 -18 100 -17 190 0 157 20 246 120 555 136 418 171
594 160 799 -11 216 -66 349 -223 545 -102 127 -146 215 -152 307 -5 86 15
139 80 210 96 105 398 273 951 530 207 97 317 166 414 263 171 171 258 371
284 651 14 145 2 320 -32 485 -129 631 -622 1117 -1246 1231 -84 15 -369 27
-443 18z m195 -694 c245 -28 442 -126 617 -308 192 -200 281 -384 281 -582 0
-195 -111 -382 -320 -538 -36 -28 -150 -99 -252 -158 -588 -342 -784 -475
-1031 -698 -103 -93 -207 -149 -311 -166 -61 -10 -89 -10 -180 4 -60 9 -146
28 -191 41 -122 37 -219 52 -471 75 -372 33 -494 68 -595 171 -100 101 -129
280 -69 427 50 124 184 285 392 472 124 110 260 248 328 330 111 134 412 429
522 512 265 199 513 316 807 382 187 42 325 52 473 36z m-2955 -2696 c405 -34
793 -107 1202 -225 156 -45 498 -160 576 -195 122 -54 268 -177 349 -295 82
-120 152 -299 173 -447 19 -131 8 -337 -23 -443 -52 -173 -127 -301 -231 -395
-83 -76 -145 -98 -266 -97 -79 1 -115 7 -215 37 -1121 340 -1920 468 -3095
496 -327 7 -385 11 -452 29 -91 24 -109 32 -167 79 -29 24 -54 57 -74 100
l-30 65 -6 261 c-9 458 -7 513 17 591 36 119 100 195 209 249 137 68 308 96
1073 177 336 35 382 37 575 33 116 -3 289 -12 385 -20z m9920 -4131 c184 -30
376 -112 550 -236 105 -75 376 -344 494 -492 191 -238 361 -533 452 -780 45
-125 97 -326 121 -470 25 -153 25 -514 0 -670 -69 -434 -231 -852 -485 -1256
-79 -125 -136 -240 -175 -352 -31 -89 -32 -97 -32 -257 0 -160 1 -168 32 -257
38 -108 91 -217 179 -365 197 -332 312 -642 376 -1013 19 -113 22 -165 23
-400 0 -236 -3 -286 -23 -395 -75 -419 -217 -745 -469 -1078 -228 -301 -581
-587 -928 -753 -212 -100 -338 -132 -530 -132 -166 0 -281 29 -440 108 -382
190 -835 710 -1015 1163 -120 305 -169 618 -172 1117 -2 202 1 268 15 344 33
171 86 313 169 452 133 219 164 333 116 429 -41 80 -136 125 -326 156 -68 11
-163 14 -350 13 -265 -1 -307 3 -400 42 -55 24 -133 103 -167 169 -62 122
-110 401 -103 593 6 146 27 212 93 285 110 123 295 170 745 192 234 11 382 30
430 55 101 52 92 139 -42 395 -150 284 -179 347 -217 464 -140 431 -128 924
34 1422 205 630 625 1143 1121 1369 176 81 396 139 584 154 112 10 210 5 340
-16z m-12290 -693 c406 -47 632 -275 725 -734 55 -271 80 -669 72 -1136 -8
-455 -45 -743 -148 -1153 -125 -498 -415 -1104 -670 -1405 -119 -140 -280
-246 -439 -289 -87 -24 -288 -23 -385 0 -103 26 -220 87 -298 158 -192 174
-298 437 -386 959 -180 1076 -3 2070 529 2963 231 388 501 599 815 637 88 11
92 11 185 0z m-3967 -144 c178 -57 309 -190 391 -398 65 -165 148 -517 180
-770 116 -898 -69 -1739 -551 -2508 -180 -286 -317 -451 -449 -539 -205 -138
-395 -116 -570 66 -144 149 -277 422 -338 696 -127 563 -103 1396 59 2036 129
511 386 1010 647 1256 85 80 220 157 308 175 64 13 266 4 323 -14z m7707
-9096 c1035 -49 1828 -261 2404 -644 630 -419 1014 -1027 1167 -1851 33 -174
33 -462 1 -622 -63 -313 -195 -557 -418 -773 -330 -319 -745 -457 -1540 -510
-251 -17 -3927 -19 -4064 -2 -237 29 -394 70 -559 148 -534 251 -795 795 -716
1494 50 437 164 838 336 1183 470 936 1371 1498 2528 1576 173 12 617 12 861
1z m-9515 -380 c176 -51 328 -144 580 -356 1269 -1065 2587 -1762 3895 -2059
178 -40 235 -58 305 -93 157 -78 220 -195 218 -407 -3 -365 -194 -576 -640
-704 -397 -115 -673 -151 -1448 -191 -441 -22 -617 -34 -805 -55 -87 -9 -151
-10 -210 -4 -47 4 -290 22 -540 39 -1050 70 -1447 125 -1929 266 -195 56 -302
98 -461 181 -164 84 -290 174 -424 303 -226 218 -369 458 -441 745 -152 600
97 1270 650 1752 94 81 416 338 497 396 147 105 294 175 428 203 85 18 234 11
325 -16z"/>
<path d="M20413 13865 c-192 -35 -343 -118 -451 -248 -156 -190 -235 -538
-188 -828 53 -321 201 -573 426 -726 182 -124 432 -134 628 -26 209 115 377
342 447 607 129 481 -53 985 -420 1167 -134 66 -279 84 -442 54z m208 -419
c220 -47 332 -214 333 -496 0 -229 -78 -386 -232 -468 -96 -51 -158 -63 -239
-46 -184 38 -301 147 -349 324 -25 93 -25 303 0 385 40 132 108 223 201 269
95 46 175 55 286 32z"/>
<path d="M20321 9570 c-287 -70 -515 -329 -586 -665 -23 -109 -31 -303 -15
-406 16 -111 66 -258 121 -355 64 -115 217 -266 324 -321 130 -67 211 -87 345
-87 130 -1 203 16 310 70 194 97 348 304 416 559 32 122 44 349 24 473 -82
513 -501 840 -939 732z m241 -381 c230 -48 358 -232 358 -513 -1 -277 -119
-448 -347 -502 -86 -20 -200 -14 -266 15 -66 29 -142 108 -177 185 -83 182
-77 439 12 585 60 98 159 176 275 217 79 28 76 27 145 13z"/>
</g>
</svg>
